<svg width="935" height="465" viewBox="0 0 935 465" fill="none" xmlns="http://www.w3.org/2000/svg">
<g clip-path="url(#clip0_8_4111)">
<path d="M723.102 246.585C719.8 246.585 716.634 245.273 714.3 242.937C711.965 240.602 710.654 237.434 710.654 234.131C710.654 230.828 711.965 227.66 714.3 225.325C716.634 222.989 719.8 221.677 723.102 221.677H723.656C721.244 163.787 697.155 108.922 656.175 67.9822C569.198 -19.0376 429.706 -22.2224 338.834 58.4753C337.877 59.3396 337.105 60.3897 336.567 61.5618C336.028 62.7338 335.733 64.0033 335.701 65.2929C335.668 66.5825 335.898 67.8653 336.377 69.0631C336.856 70.2609 337.573 71.3487 338.486 72.2603L492.373 226.225C493.805 227.647 494.748 229.489 495.064 231.483C495.38 233.477 495.053 235.52 494.131 237.316L395.308 431.336C394.723 432.483 394.377 433.737 394.29 435.021C394.204 436.306 394.379 437.595 394.806 438.81C395.232 440.025 395.901 441.141 396.771 442.09C397.642 443.038 398.696 443.8 399.87 444.329C487.939 483.133 587.205 464.753 656.175 395.748C696.023 355.95 719.936 302.938 723.403 246.712L723.102 246.585Z" fill="#9945FF"/>
<path d="M602.269 219.581C602.269 217.121 602.967 215.223 604.364 213.887C605.791 212.55 607.627 211.882 609.874 211.882C612.121 211.882 613.942 212.55 615.339 213.887C616.735 215.223 617.434 217.121 617.434 219.581C617.434 222.041 616.735 223.939 615.339 225.276C613.942 226.612 612.121 227.28 609.874 227.28C607.627 227.28 605.791 226.612 604.364 225.276C602.967 223.939 602.269 222.041 602.269 219.581ZM633.191 212.383L615.658 244.455H608.144L625.677 212.383H633.191ZM609.829 216.438C608.371 216.438 607.643 217.486 607.643 219.581C607.643 221.646 608.371 222.679 609.829 222.679C610.527 222.679 611.073 222.421 611.468 221.904C611.863 221.388 612.06 220.614 612.06 219.581C612.06 217.486 611.316 216.438 609.829 216.438ZM623.946 237.257C623.946 234.797 624.644 232.899 626.041 231.562C627.437 230.226 629.259 229.558 631.506 229.558C633.752 229.558 635.574 230.226 636.971 231.562C638.367 232.899 639.065 234.797 639.065 237.257C639.065 239.717 638.367 241.615 636.971 242.952C635.574 244.288 633.752 244.956 631.506 244.956C629.259 244.956 627.437 244.288 626.041 242.952C624.644 241.615 623.946 239.717 623.946 237.257ZM631.46 234.114C630.762 234.114 630.215 234.372 629.821 234.888C629.456 235.404 629.274 236.194 629.274 237.257C629.274 239.322 630.003 240.355 631.46 240.355C632.158 240.355 632.705 240.097 633.1 239.58C633.494 239.064 633.692 238.29 633.692 237.257C633.692 236.224 633.494 235.45 633.1 234.934C632.705 234.387 632.158 234.114 631.46 234.114Z" fill="white"/>
<path d="M573.198 227.371C573.198 222.147 574.2 218.032 576.204 215.025C578.238 212.019 581.502 210.515 585.995 210.515C590.489 210.515 593.737 212.019 595.741 215.025C597.775 218.032 598.792 222.147 598.792 227.371C598.792 232.656 597.775 236.801 595.741 239.808C593.737 242.815 590.489 244.318 585.995 244.318C581.502 244.318 578.238 242.815 576.204 239.808C574.2 236.801 573.198 232.656 573.198 227.371ZM591.141 227.371C591.141 224.304 590.807 221.95 590.14 220.31C589.472 218.64 588.09 217.804 585.995 217.804C583.9 217.804 582.519 218.64 581.851 220.31C581.183 221.95 580.849 224.304 580.849 227.371C580.849 229.436 580.971 231.152 581.214 232.519C581.456 233.855 581.942 234.949 582.671 235.799C583.43 236.619 584.538 237.029 585.995 237.029C587.453 237.029 588.546 236.619 589.274 235.799C590.033 234.949 590.534 233.855 590.777 232.519C591.02 231.152 591.141 229.436 591.141 227.371Z" fill="white"/>
<path d="M570.049 217.03L558.618 244.455H550.649L562.216 217.896H548.053V211.244H570.049V217.03Z" fill="white"/>
<path d="M470.661 215.609L331.676 76.5543C330.92 75.7953 330.019 75.1974 329.026 74.7967C328.034 74.396 326.97 74.2009 325.9 74.2231C324.829 74.2454 323.775 74.4844 322.8 74.926C321.824 75.3675 320.949 76.0023 320.225 76.792C309.665 88.2839 300.305 100.824 292.289 114.217C294.061 114.723 295.698 115.616 297.083 116.832C298.467 118.049 299.564 119.558 300.294 121.25C301.024 122.943 301.369 124.777 301.304 126.619C301.239 128.461 300.765 130.266 299.918 131.902C299.07 133.539 297.869 134.967 296.402 136.082C294.935 137.197 293.238 137.973 291.435 138.351C289.632 138.73 287.767 138.704 285.976 138.273C284.184 137.842 282.511 137.019 281.076 135.861C274.279 151.131 269.186 167.104 265.889 183.491C265.675 184.54 265.675 185.621 265.89 186.67C266.105 187.719 266.531 188.713 267.14 189.592C267.75 190.472 268.532 191.219 269.438 191.788C270.345 192.357 271.357 192.736 272.414 192.903L466.559 223.674C467.552 223.833 468.569 223.673 469.465 223.217C470.362 222.761 471.09 222.032 471.546 221.136C472.002 220.239 472.162 219.221 472.003 218.228C471.844 217.235 471.374 216.318 470.661 215.609Z" fill="#14F195"/>
<path d="M352.31 160.856C352.31 158.943 352.853 157.466 353.939 156.427C355.049 155.388 356.477 154.868 358.225 154.868C359.972 154.868 361.389 155.388 362.475 156.427C363.561 157.466 364.105 158.943 364.105 160.856C364.105 162.769 363.561 164.246 362.475 165.285C361.389 166.325 359.972 166.844 358.225 166.844C356.477 166.844 355.049 166.325 353.939 165.285C352.853 164.246 352.31 162.769 352.31 160.856ZM376.36 155.258L362.723 180.202H356.879L370.516 155.258H376.36ZM358.189 158.411C357.056 158.411 356.489 159.226 356.489 160.856C356.489 162.462 357.056 163.265 358.189 163.265C358.732 163.265 359.157 163.065 359.464 162.663C359.771 162.262 359.925 161.659 359.925 160.856C359.925 159.226 359.346 158.411 358.189 158.411ZM369.17 174.604C369.17 172.691 369.713 171.214 370.799 170.175C371.885 169.135 373.302 168.616 375.049 168.616C376.797 168.616 378.214 169.135 379.3 170.175C380.386 171.214 380.929 172.691 380.929 174.604C380.929 176.517 380.386 177.994 379.3 179.033C378.214 180.072 376.797 180.592 375.049 180.592C373.302 180.592 371.885 180.072 370.799 179.033C369.713 177.994 369.17 176.517 369.17 174.604ZM375.014 172.159C374.471 172.159 374.046 172.36 373.739 172.761C373.456 173.163 373.314 173.777 373.314 174.604C373.314 176.21 373.881 177.013 375.014 177.013C375.557 177.013 375.982 176.813 376.289 176.411C376.596 176.009 376.75 175.407 376.75 174.604C376.75 173.801 376.596 173.198 376.289 172.797C375.982 172.372 375.557 172.159 375.014 172.159Z" fill="white"/>
<path d="M329.699 166.915C329.699 162.852 330.478 159.651 332.037 157.313C333.619 154.974 336.158 153.805 339.652 153.805C343.147 153.805 345.674 154.974 347.232 157.313C348.814 159.651 349.605 162.852 349.605 166.915C349.605 171.025 348.814 174.25 347.232 176.588C345.674 178.927 343.147 180.096 339.652 180.096C336.158 180.096 333.619 178.927 332.037 176.588C330.478 174.25 329.699 171.025 329.699 166.915ZM343.655 166.915C343.655 164.529 343.395 162.699 342.876 161.423C342.356 160.124 341.282 159.474 339.652 159.474C338.023 159.474 336.949 160.124 336.429 161.423C335.91 162.699 335.65 164.529 335.65 166.915C335.65 168.521 335.744 169.856 335.933 170.919C336.122 171.958 336.5 172.809 337.067 173.47C337.657 174.108 338.519 174.427 339.652 174.427C340.786 174.427 341.636 174.108 342.203 173.47C342.793 172.809 343.183 171.958 343.371 170.919C343.56 169.856 343.655 168.521 343.655 166.915Z" fill="white"/>
<path d="M315.744 159.97V154.336H325.556V180.202H319.251V159.97H315.744Z" fill="white"/>
<path d="M470.138 232.261L271.178 200.73C270.122 200.561 269.042 200.607 268.003 200.867C266.965 201.126 265.99 201.594 265.138 202.241C264.285 202.888 263.572 203.702 263.043 204.632C262.513 205.562 262.178 206.591 262.056 207.654C260.273 223.153 260.066 238.793 261.439 254.333C263.191 253.504 265.113 253.095 267.052 253.14C268.99 253.185 270.892 253.683 272.604 254.593C274.316 255.503 275.792 256.801 276.914 258.383C278.036 259.966 278.774 261.788 279.067 263.706C279.36 265.623 279.202 267.583 278.605 269.429C278.007 271.274 276.987 272.954 275.625 274.336C274.264 275.717 272.599 276.761 270.762 277.384C268.926 278.008 266.97 278.193 265.049 277.926C268.524 294.47 273.836 310.573 280.886 325.936C281.33 326.909 281.966 327.782 282.755 328.503C283.545 329.223 284.473 329.776 285.482 330.129C286.491 330.481 287.561 330.625 288.628 330.553C289.694 330.48 290.735 330.193 291.687 329.707L471.088 238.219C471.686 237.915 472.172 237.43 472.476 236.832C472.781 236.235 472.888 235.556 472.782 234.894C472.677 234.232 472.364 233.62 471.889 233.147C471.413 232.674 470.8 232.364 470.138 232.261Z" fill="#49A59F"/>
<path d="M348.082 245.879C348.082 243.965 348.625 242.489 349.712 241.45C350.821 240.41 352.25 239.891 353.997 239.891C355.745 239.891 357.162 240.41 358.248 241.45C359.334 242.489 359.877 243.965 359.877 245.879C359.877 247.792 359.334 249.268 358.248 250.308C357.162 251.347 355.745 251.867 353.997 251.867C352.25 251.867 350.821 251.347 349.712 250.308C348.625 249.268 348.082 247.792 348.082 245.879ZM372.133 240.28L358.496 265.225H352.651L366.288 240.28H372.133ZM353.962 243.434C352.829 243.434 352.262 244.249 352.262 245.879C352.262 247.485 352.829 248.288 353.962 248.288C354.505 248.288 354.93 248.087 355.237 247.686C355.544 247.284 355.698 246.682 355.698 245.879C355.698 244.249 355.119 243.434 353.962 243.434ZM364.942 259.627C364.942 257.713 365.485 256.237 366.572 255.198C367.658 254.158 369.075 253.639 370.822 253.639C372.57 253.639 373.986 254.158 375.073 255.198C376.159 256.237 376.702 257.713 376.702 259.627C376.702 261.54 376.159 263.016 375.073 264.056C373.986 265.095 372.57 265.615 370.822 265.615C369.075 265.615 367.658 265.095 366.572 264.056C365.485 263.016 364.942 261.54 364.942 259.627ZM370.787 257.182C370.244 257.182 369.819 257.383 369.512 257.784C369.228 258.186 369.087 258.8 369.087 259.627C369.087 261.233 369.653 262.036 370.787 262.036C371.33 262.036 371.755 261.835 372.062 261.434C372.369 261.032 372.522 260.43 372.522 259.627C372.522 258.824 372.369 258.221 372.062 257.82C371.755 257.394 371.33 257.182 370.787 257.182Z" fill="white"/>
<path d="M325.472 251.938C325.472 247.875 326.251 244.674 327.81 242.335C329.392 239.997 331.93 238.828 335.425 238.828C338.92 238.828 341.446 239.997 343.005 242.335C344.587 244.674 345.378 247.875 345.378 251.938C345.378 256.048 344.587 259.272 343.005 261.611C341.446 263.949 338.92 265.119 335.425 265.119C331.93 265.119 329.392 263.949 327.81 261.611C326.251 259.272 325.472 256.048 325.472 251.938ZM339.428 251.938C339.428 249.552 339.168 247.721 338.648 246.446C338.129 245.146 337.054 244.497 335.425 244.497C333.796 244.497 332.721 245.146 332.202 246.446C331.682 247.721 331.423 249.552 331.423 251.938C331.423 253.544 331.517 254.879 331.706 255.942C331.895 256.981 332.273 257.831 332.839 258.493C333.43 259.131 334.292 259.449 335.425 259.449C336.558 259.449 337.409 259.131 337.975 258.493C338.566 257.831 338.955 256.981 339.144 255.942C339.333 254.879 339.428 253.544 339.428 251.938Z" fill="white"/>
<path d="M311.517 244.993V239.359H321.329V265.225H315.024V244.993H311.517Z" fill="white"/>
<path d="M474.683 245.27L295.14 336.774C294.185 337.258 293.339 337.931 292.652 338.752C291.965 339.572 291.451 340.524 291.142 341.548C290.833 342.573 290.734 343.65 290.852 344.714C290.971 345.778 291.303 346.807 291.83 347.739C298.839 360.144 306.977 371.877 316.139 382.787C318.533 380.518 321.731 379.293 325.027 379.382C328.324 379.472 331.45 380.867 333.718 383.263C335.986 385.658 337.211 388.857 337.122 392.155C337.032 395.453 335.637 398.581 333.243 400.85C346.358 413.043 360.871 423.638 376.478 432.413C377.409 432.941 378.436 433.274 379.499 433.394C380.561 433.513 381.637 433.416 382.661 433.108C383.686 432.8 384.637 432.288 385.458 431.602C386.278 430.916 386.952 430.071 387.437 429.118L478.896 249.532C479.189 248.941 479.29 248.273 479.185 247.621C479.08 246.969 478.774 246.366 478.31 245.897C477.846 245.427 477.247 245.115 476.597 245.002C475.947 244.89 475.278 244.984 474.683 245.27Z" fill="#FFCD56"/>
<path d="M381.943 337.622C381.943 335.709 382.486 334.232 383.572 333.193C384.682 332.154 386.111 331.634 387.858 331.634C389.606 331.634 391.023 332.154 392.109 333.193C393.195 334.232 393.738 335.709 393.738 337.622C393.738 339.536 393.195 341.012 392.109 342.051C391.023 343.091 389.606 343.61 387.858 343.61C386.111 343.61 384.682 343.091 383.572 342.051C382.486 341.012 381.943 339.536 381.943 337.622ZM405.994 332.024L392.357 356.968H386.512L400.149 332.024H405.994ZM387.823 335.177C386.689 335.177 386.123 335.992 386.123 337.622C386.123 339.228 386.689 340.032 387.823 340.032C388.366 340.032 388.791 339.831 389.098 339.429C389.405 339.028 389.558 338.425 389.558 337.622C389.558 335.992 388.98 335.177 387.823 335.177ZM398.803 351.37C398.803 349.457 399.346 347.98 400.433 346.941C401.519 345.902 402.936 345.382 404.683 345.382C406.43 345.382 407.847 345.902 408.933 346.941C410.02 347.98 410.563 349.457 410.563 351.37C410.563 353.283 410.02 354.76 408.933 355.799C407.847 356.839 406.43 357.358 404.683 357.358C402.936 357.358 401.519 356.839 400.433 355.799C399.346 354.76 398.803 353.283 398.803 351.37ZM404.648 348.925C404.104 348.925 403.679 349.126 403.372 349.528C403.089 349.929 402.947 350.543 402.947 351.37C402.947 352.976 403.514 353.779 404.648 353.779C405.191 353.779 405.616 353.579 405.923 353.177C406.23 352.776 406.383 352.173 406.383 351.37C406.383 350.567 406.23 349.965 405.923 349.563C405.616 349.138 405.191 348.925 404.648 348.925Z" fill="white"/>
<path d="M359.333 343.681C359.333 339.618 360.112 336.417 361.671 334.079C363.253 331.74 365.791 330.571 369.286 330.571C372.781 330.571 375.307 331.74 376.866 334.079C378.448 336.417 379.239 339.618 379.239 343.681C379.239 347.791 378.448 351.016 376.866 353.354C375.307 355.693 372.781 356.862 369.286 356.862C365.791 356.862 363.253 355.693 361.671 353.354C360.112 351.016 359.333 347.791 359.333 343.681ZM373.288 343.681C373.288 341.295 373.029 339.465 372.509 338.189C371.99 336.89 370.915 336.24 369.286 336.24C367.657 336.24 366.582 336.89 366.063 338.189C365.543 339.465 365.283 341.295 365.283 343.681C365.283 345.287 365.378 346.622 365.567 347.685C365.756 348.724 366.133 349.575 366.7 350.236C367.291 350.874 368.152 351.193 369.286 351.193C370.419 351.193 371.269 350.874 371.836 350.236C372.426 349.575 372.816 348.724 373.005 347.685C373.194 346.622 373.288 345.287 373.288 343.681Z" fill="white"/>
<path d="M345.378 336.736V331.103H355.189V356.968H348.885V336.736H345.378Z" fill="white"/>
<path d="M731.907 234.131C731.907 235.873 731.391 237.577 730.423 239.025C729.456 240.474 728.08 241.603 726.471 242.27C724.862 242.937 723.092 243.111 721.384 242.771C719.676 242.432 718.107 241.593 716.875 240.36C715.644 239.128 714.805 237.559 714.466 235.85C714.126 234.141 714.3 232.369 714.967 230.76C715.633 229.15 716.762 227.774 718.21 226.806C719.658 225.838 721.36 225.321 723.102 225.321C724.259 225.319 725.405 225.546 726.474 225.988C727.543 226.43 728.515 227.078 729.333 227.897C730.151 228.715 730.799 229.687 731.241 230.757C731.683 231.827 731.909 232.974 731.907 234.131Z" fill="#9945FF"/>
<path d="M297.674 126.18C297.674 127.923 297.157 129.627 296.189 131.076C295.22 132.526 293.844 133.655 292.234 134.321C290.624 134.987 288.853 135.161 287.145 134.82C285.436 134.478 283.867 133.638 282.636 132.404C281.406 131.17 280.568 129.599 280.23 127.889C279.892 126.179 280.069 124.407 280.738 122.798C281.407 121.189 282.538 119.814 283.988 118.848C285.438 117.881 287.142 117.367 288.884 117.371C290.04 117.371 291.184 117.599 292.251 118.042C293.319 118.484 294.289 119.134 295.105 119.952C295.921 120.77 296.568 121.741 297.009 122.81C297.45 123.879 297.676 125.024 297.674 126.18Z" fill="#14F195"/>
<path d="M275.502 265.599C275.505 267.343 274.991 269.048 274.024 270.499C273.058 271.95 271.683 273.082 270.073 273.751C268.464 274.42 266.692 274.595 264.983 274.256C263.273 273.916 261.703 273.077 260.47 271.844C259.238 270.611 258.399 269.04 258.06 267.329C257.72 265.619 257.896 263.846 258.564 262.236C259.233 260.626 260.364 259.25 261.814 258.283C263.265 257.316 264.969 256.802 266.712 256.805C269.042 256.809 271.275 257.737 272.923 259.385C274.57 261.034 275.498 263.268 275.502 265.599Z" fill="#49A59F"/>
<path d="M333.449 391.898C333.449 393.641 332.932 395.345 331.964 396.794C330.996 398.243 329.62 399.372 328.01 400.039C326.4 400.705 324.629 400.879 322.92 400.537C321.212 400.196 319.643 399.356 318.412 398.122C317.181 396.888 316.344 395.317 316.006 393.607C315.668 391.897 315.845 390.125 316.513 388.516C317.182 386.906 318.313 385.532 319.764 384.565C321.214 383.599 322.918 383.085 324.66 383.088C325.815 383.088 326.96 383.316 328.027 383.759C329.094 384.202 330.064 384.851 330.881 385.67C331.697 386.488 332.344 387.459 332.785 388.528C333.226 389.597 333.451 390.742 333.449 391.898Z" fill="#FFCD56"/>
</g>
<path d="M781.475 215.349V212.309H789.859C791.032 212.309 791.971 211.968 792.675 211.285C793.4 210.602 793.763 209.685 793.763 208.533C793.763 207.338 793.4 206.41 792.675 205.749C791.971 205.066 791.032 204.725 789.859 204.725H781.987V222.293H778.339V201.557H789.603C790.691 201.557 791.704 201.706 792.643 202.005C793.582 202.282 794.403 202.709 795.107 203.285C795.832 203.861 796.387 204.586 796.771 205.461C797.176 206.314 797.379 207.338 797.379 208.533C797.379 209.706 797.176 210.73 796.771 211.605C796.387 212.458 795.832 213.162 795.107 213.717C794.403 214.272 793.582 214.688 792.643 214.965C791.704 215.221 790.691 215.349 789.603 215.349H781.475ZM800.86 206.357H804.412V222.293H800.86V206.357ZM810.172 209.397C809.02 209.397 808.028 209.642 807.196 210.133C806.385 210.624 805.734 211.221 805.244 211.925C804.753 212.629 804.412 213.312 804.22 213.973L804.188 212.181C804.209 211.946 804.284 211.594 804.412 211.125C804.54 210.634 804.732 210.101 804.988 209.525C805.265 208.949 805.628 208.394 806.076 207.861C806.545 207.306 807.11 206.858 807.772 206.517C808.454 206.176 809.254 206.005 810.172 206.005V209.397ZM826.172 217.045H829.596C829.425 218.133 828.998 219.104 828.316 219.957C827.654 220.789 826.748 221.45 825.596 221.941C824.444 222.41 823.068 222.645 821.468 222.645C819.654 222.645 818.033 222.314 816.604 221.653C815.174 220.97 814.054 220.01 813.244 218.773C812.433 217.536 812.028 216.064 812.028 214.357C812.028 212.672 812.422 211.2 813.212 209.941C814.001 208.682 815.089 207.712 816.476 207.029C817.884 206.346 819.505 206.005 821.34 206.005C823.238 206.005 824.817 206.346 826.076 207.029C827.356 207.69 828.305 208.693 828.924 210.037C829.542 211.36 829.798 213.034 829.692 215.061H815.644C815.75 215.957 816.038 216.768 816.508 217.493C816.998 218.197 817.66 218.752 818.492 219.157C819.324 219.541 820.294 219.733 821.404 219.733C822.641 219.733 823.676 219.488 824.508 218.997C825.361 218.506 825.916 217.856 826.172 217.045ZM821.244 208.885C819.793 208.885 818.598 209.248 817.66 209.973C816.721 210.677 816.113 211.584 815.836 212.693H826.108C826.022 211.498 825.542 210.57 824.668 209.909C823.793 209.226 822.652 208.885 821.244 208.885ZM832.156 217.045H835.452C835.622 217.856 836.06 218.517 836.764 219.029C837.468 219.52 838.417 219.765 839.612 219.765C840.38 219.765 840.977 219.68 841.404 219.509C841.852 219.338 842.161 219.104 842.332 218.805C842.524 218.506 842.62 218.165 842.62 217.781C842.62 217.312 842.481 216.949 842.204 216.693C841.948 216.437 841.564 216.224 841.052 216.053C840.54 215.882 839.9 215.733 839.132 215.605C838.342 215.413 837.564 215.2 836.796 214.965C836.028 214.73 835.334 214.442 834.716 214.101C834.097 213.738 833.606 213.29 833.244 212.757C832.902 212.202 832.732 211.53 832.732 210.741C832.732 210.016 832.892 209.365 833.212 208.789C833.553 208.192 834.022 207.69 834.62 207.285C835.217 206.88 835.921 206.57 836.732 206.357C837.542 206.122 838.428 206.005 839.388 206.005C840.774 206.005 841.926 206.229 842.844 206.677C843.782 207.125 844.486 207.754 844.956 208.565C845.446 209.376 845.692 210.304 845.692 211.349H842.556C842.385 210.496 842.054 209.877 841.564 209.493C841.073 209.109 840.337 208.917 839.356 208.917C838.374 208.917 837.628 209.088 837.116 209.429C836.604 209.77 836.348 210.24 836.348 210.837C836.348 211.285 836.508 211.648 836.828 211.925C837.169 212.181 837.649 212.405 838.268 212.597C838.886 212.789 839.612 212.981 840.444 213.173C841.212 213.386 841.937 213.61 842.62 213.845C843.302 214.058 843.91 214.336 844.444 214.677C844.998 214.997 845.436 215.424 845.756 215.957C846.076 216.49 846.236 217.152 846.236 217.941C846.236 218.922 845.969 219.765 845.436 220.469C844.924 221.173 844.177 221.717 843.196 222.101C842.214 222.464 841.03 222.645 839.644 222.645C838.428 222.645 837.372 222.506 836.476 222.229C835.601 221.952 834.865 221.589 834.268 221.141C833.692 220.693 833.244 220.213 832.924 219.701C832.604 219.189 832.38 218.698 832.252 218.229C832.145 217.76 832.113 217.365 832.156 217.045ZM856.557 222.645C855.107 222.645 853.773 222.293 852.557 221.589C851.363 220.885 850.403 219.914 849.677 218.677C848.973 217.418 848.621 215.978 848.621 214.357C848.621 212.693 848.984 211.242 849.709 210.005C850.435 208.746 851.416 207.765 852.653 207.061C853.891 206.357 855.277 206.005 856.813 206.005C858.52 206.005 859.875 206.378 860.877 207.125C861.88 207.872 862.595 208.874 863.021 210.133C863.448 211.392 863.661 212.8 863.661 214.357C863.661 215.232 863.533 216.16 863.277 217.141C863.021 218.101 862.616 218.997 862.061 219.829C861.528 220.661 860.803 221.344 859.885 221.877C858.989 222.389 857.88 222.645 856.557 222.645ZM857.645 219.701C858.84 219.701 859.853 219.477 860.685 219.029C861.539 218.56 862.179 217.92 862.605 217.109C863.053 216.298 863.277 215.381 863.277 214.357C863.277 213.226 863.053 212.266 862.605 211.477C862.157 210.666 861.517 210.048 860.685 209.621C859.853 209.173 858.84 208.949 857.645 208.949C855.939 208.949 854.616 209.45 853.677 210.453C852.739 211.456 852.269 212.757 852.269 214.357C852.269 215.402 852.493 216.33 852.941 217.141C853.411 217.952 854.051 218.581 854.861 219.029C855.672 219.477 856.6 219.701 857.645 219.701ZM863.277 206.357H866.861V222.293H863.533C863.533 222.293 863.512 222.09 863.469 221.685C863.427 221.28 863.384 220.789 863.341 220.213C863.299 219.616 863.277 219.05 863.277 218.517V206.357ZM871.086 199.957H874.638V222.293H871.086V199.957ZM892.265 217.045H895.689C895.519 218.133 895.092 219.104 894.409 219.957C893.748 220.789 892.841 221.45 891.689 221.941C890.537 222.41 889.161 222.645 887.561 222.645C885.748 222.645 884.127 222.314 882.697 221.653C881.268 220.97 880.148 220.01 879.337 218.773C878.527 217.536 878.121 216.064 878.121 214.357C878.121 212.672 878.516 211.2 879.305 209.941C880.095 208.682 881.183 207.712 882.569 207.029C883.977 206.346 885.599 206.005 887.433 206.005C889.332 206.005 890.911 206.346 892.169 207.029C893.449 207.69 894.399 208.693 895.017 210.037C895.636 211.36 895.892 213.034 895.785 215.061H881.737C881.844 215.957 882.132 216.768 882.601 217.493C883.092 218.197 883.753 218.752 884.585 219.157C885.417 219.541 886.388 219.733 887.497 219.733C888.735 219.733 889.769 219.488 890.601 218.997C891.455 218.506 892.009 217.856 892.265 217.045ZM887.337 208.885C885.887 208.885 884.692 209.248 883.753 209.973C882.815 210.677 882.207 211.584 881.929 212.693H892.201C892.116 211.498 891.636 210.57 890.761 209.909C889.887 209.226 888.745 208.885 887.337 208.885ZM912.088 222.645C911.192 222.645 910.339 222.517 909.528 222.261C908.739 221.984 908.046 221.61 907.448 221.141C906.851 220.672 906.371 220.106 906.008 219.445C905.667 218.784 905.496 218.048 905.496 217.237C905.496 216.256 905.72 215.402 906.168 214.677C906.616 213.952 907.224 213.354 907.992 212.885C908.782 212.416 909.678 212.064 910.68 211.829C911.683 211.573 912.75 211.424 913.88 211.381L914.008 211.541C912.942 211.498 911.939 211.402 911 211.253C910.083 211.082 909.272 210.816 908.568 210.453C907.886 210.09 907.352 209.621 906.968 209.045C906.584 208.448 906.392 207.722 906.392 206.869C906.392 205.738 906.712 204.746 907.352 203.893C908.014 203.04 908.952 202.378 910.168 201.909C911.406 201.418 912.856 201.173 914.52 201.173C915.672 201.173 916.718 201.301 917.656 201.557C918.595 201.792 919.395 202.165 920.056 202.677C920.739 203.168 921.262 203.786 921.624 204.533C921.987 205.258 922.168 206.101 922.168 207.061H918.904C918.883 206.165 918.478 205.482 917.688 205.013C916.92 204.544 915.875 204.309 914.552 204.309C913.102 204.309 911.992 204.576 911.224 205.109C910.456 205.642 910.072 206.368 910.072 207.285C910.072 207.925 910.254 208.49 910.616 208.981C911 209.45 911.555 209.813 912.28 210.069C913.006 210.304 913.902 210.421 914.968 210.421H926.168V212.821H922.456V222.293H919.16C919.075 221.632 919.011 221.013 918.968 220.437C918.947 219.84 918.926 219.189 918.904 218.485C918.904 217.781 918.904 216.928 918.904 215.925L919.128 216.629C918.979 217.376 918.734 218.112 918.392 218.837C918.072 219.541 917.635 220.181 917.08 220.757C916.526 221.333 915.832 221.792 915 222.133C914.19 222.474 913.219 222.645 912.088 222.645ZM913.528 219.701C914.702 219.701 915.683 219.466 916.472 218.997C917.262 218.506 917.859 217.877 918.264 217.109C918.691 216.32 918.904 215.509 918.904 214.677V212.821H914.968C913.219 212.821 911.822 213.13 910.776 213.749C909.752 214.346 909.24 215.242 909.24 216.437C909.24 217.418 909.603 218.208 910.328 218.805C911.075 219.402 912.142 219.701 913.528 219.701ZM782.051 241.557V259.157H794.979V262.293H778.403V241.557H782.051ZM802.645 239.605V243.029H798.389V239.605H802.645ZM798.709 246.357H802.293V262.293H798.709V246.357ZM813.651 262.645C812.201 262.645 810.867 262.304 809.651 261.621C808.457 260.917 807.497 259.946 806.771 258.709C806.067 257.45 805.715 256 805.715 254.357C805.715 252.714 806.067 251.274 806.771 250.037C807.497 248.778 808.457 247.797 809.651 247.093C810.867 246.368 812.201 246.005 813.651 246.005C814.995 246.005 816.126 246.229 817.043 246.677C817.961 247.104 818.686 247.701 819.219 248.469C819.753 249.216 820.137 250.09 820.371 251.093C820.627 252.096 820.755 253.184 820.755 254.357C820.755 255.232 820.627 256.16 820.371 257.141C820.115 258.101 819.71 259.008 819.155 259.861C818.622 260.693 817.897 261.365 816.979 261.877C816.083 262.389 814.974 262.645 813.651 262.645ZM814.739 259.701C815.934 259.701 816.947 259.477 817.779 259.029C818.633 258.56 819.273 257.92 819.699 257.109C820.147 256.298 820.371 255.381 820.371 254.357C820.371 253.226 820.147 252.266 819.699 251.477C819.251 250.666 818.611 250.037 817.779 249.589C816.947 249.141 815.934 248.917 814.739 248.917C813.033 248.917 811.71 249.429 810.771 250.453C809.833 251.456 809.363 252.757 809.363 254.357C809.363 255.402 809.587 256.33 810.035 257.141C810.505 257.952 811.145 258.581 811.955 259.029C812.766 259.477 813.694 259.701 814.739 259.701ZM823.955 246.357V268.693H820.371V249.941L820.467 246.357H823.955ZM845.093 262.293H841.541V246.357H845.093V262.293ZM841.733 254.709L841.765 255.733C841.722 256.01 841.626 256.426 841.477 256.981C841.349 257.536 841.125 258.144 840.805 258.805C840.506 259.445 840.101 260.064 839.589 260.661C839.098 261.237 838.479 261.717 837.733 262.101C836.986 262.464 836.079 262.645 835.013 262.645C834.245 262.645 833.466 262.538 832.677 262.325C831.909 262.133 831.205 261.802 830.565 261.333C829.946 260.864 829.445 260.224 829.061 259.413C828.677 258.602 828.485 257.578 828.485 256.341V246.357H832.037V255.669C832.037 256.672 832.197 257.461 832.517 258.037C832.858 258.592 833.327 258.986 833.925 259.221C834.522 259.456 835.215 259.573 836.005 259.573C837.135 259.573 838.095 259.317 838.885 258.805C839.674 258.293 840.303 257.664 840.773 256.917C841.263 256.149 841.583 255.413 841.733 254.709ZM853.176 239.605V243.029H848.92V239.605H853.176ZM849.24 246.357H852.824V262.293H849.24V246.357ZM864.182 262.645C862.71 262.645 861.366 262.293 860.15 261.589C858.956 260.885 858.006 259.914 857.302 258.677C856.598 257.418 856.246 255.978 856.246 254.357C856.246 252.693 856.588 251.242 857.27 250.005C857.974 248.746 858.913 247.765 860.086 247.061C861.281 246.357 862.646 246.005 864.182 246.005C865.526 246.005 866.657 246.229 867.574 246.677C868.492 247.104 869.217 247.701 869.75 248.469C870.284 249.216 870.668 250.09 870.902 251.093C871.158 252.096 871.286 253.184 871.286 254.357C871.286 255.232 871.158 256.16 870.902 257.141C870.646 258.101 870.241 258.997 869.686 259.829C869.153 260.661 868.428 261.344 867.51 261.877C866.614 262.389 865.505 262.645 864.182 262.645ZM865.27 259.701C866.465 259.701 867.478 259.477 868.31 259.029C869.164 258.56 869.804 257.92 870.23 257.109C870.678 256.298 870.902 255.381 870.902 254.357C870.902 253.226 870.678 252.266 870.23 251.477C869.782 250.666 869.142 250.037 868.31 249.589C867.478 249.141 866.465 248.917 865.27 248.917C863.564 248.917 862.241 249.429 861.302 250.453C860.364 251.456 859.894 252.757 859.894 254.357C859.894 255.402 860.118 256.33 860.566 257.141C861.036 257.952 861.676 258.581 862.486 259.029C863.297 259.477 864.225 259.701 865.27 259.701ZM870.902 239.957H874.486V262.293H871.158C871.116 261.802 871.062 261.194 870.998 260.469C870.934 259.744 870.902 259.093 870.902 258.517V239.957ZM883.176 239.605V243.029H878.92V239.605H883.176ZM879.24 246.357H882.824V262.293H879.24V246.357ZM885.958 246.357H897.222V249.269H885.958V246.357ZM889.798 242.069H893.382V262.293H889.798V242.069ZM898.576 246.357H902.384L908.816 261.653L905.744 262.293L898.576 246.357ZM916.336 246.357L906.096 268.693H902.352L906.736 259.957L912.528 246.357H916.336Z" fill="white"/>
<path d="M12.447 254.879C14.687 254.879 16.5644 255.156 18.079 255.711C19.5937 256.265 20.799 257.023 21.695 257.983C22.591 258.921 23.231 260.009 23.615 261.247C24.0204 262.484 24.223 263.785 24.223 265.151C24.223 266.537 24.0097 267.86 23.583 269.119C23.1564 270.377 22.4737 271.497 21.535 272.479C20.6177 273.439 19.4124 274.207 17.919 274.783C16.4257 275.337 14.6017 275.615 12.447 275.615H2.49502V254.879H12.447ZM6.14302 272.415H12.415C13.9937 272.415 15.3057 272.212 16.351 271.807C17.3964 271.401 18.2284 270.857 18.847 270.175C19.4657 269.471 19.903 268.692 20.159 267.839C20.415 266.964 20.543 266.068 20.543 265.151C20.543 264.233 20.415 263.359 20.159 262.527C19.903 261.673 19.4657 260.916 18.847 260.255C18.2284 259.572 17.3964 259.039 16.351 258.655C15.3057 258.249 13.9937 258.047 12.415 258.047H6.14302V272.415ZM41.1388 270.367H44.5628C44.3921 271.455 43.9654 272.425 43.2828 273.279C42.6214 274.111 41.7148 274.772 40.5628 275.263C39.4108 275.732 38.0348 275.967 36.4348 275.967C34.6214 275.967 33.0001 275.636 31.5708 274.975C30.1414 274.292 29.0214 273.332 28.2108 272.095C27.4001 270.857 26.9948 269.385 26.9948 267.679C26.9948 265.993 27.3894 264.521 28.1788 263.263C28.9681 262.004 30.0561 261.033 31.4428 260.351C32.8508 259.668 34.4721 259.327 36.3068 259.327C38.2054 259.327 39.7841 259.668 41.0428 260.351C42.3228 261.012 43.2721 262.015 43.8908 263.359C44.5094 264.681 44.7654 266.356 44.6588 268.383H30.6108C30.7174 269.279 31.0054 270.089 31.4748 270.815C31.9654 271.519 32.6268 272.073 33.4588 272.479C34.2908 272.863 35.2614 273.055 36.3708 273.055C37.6081 273.055 38.6428 272.809 39.4748 272.319C40.3281 271.828 40.8828 271.177 41.1388 270.367ZM36.2108 262.207C34.7601 262.207 33.5654 262.569 32.6268 263.295C31.6881 263.999 31.0801 264.905 30.8028 266.015H41.0748C40.9894 264.82 40.5094 263.892 39.6348 263.231C38.7601 262.548 37.6188 262.207 36.2108 262.207ZM55.0723 273.087H53.8243L59.3283 259.679H63.2003L56.1603 275.615H52.7683L45.8243 259.679H49.7283L55.0723 273.087ZM78.4513 270.367H81.8753C81.7046 271.455 81.2779 272.425 80.5953 273.279C79.9339 274.111 79.0273 274.772 77.8753 275.263C76.7233 275.732 75.3473 275.967 73.7473 275.967C71.9339 275.967 70.3126 275.636 68.8833 274.975C67.4539 274.292 66.3339 273.332 65.5233 272.095C64.7126 270.857 64.3073 269.385 64.3073 267.679C64.3073 265.993 64.7019 264.521 65.4913 263.263C66.2806 262.004 67.3686 261.033 68.7553 260.351C70.1633 259.668 71.7846 259.327 73.6193 259.327C75.5179 259.327 77.0966 259.668 78.3553 260.351C79.6353 261.012 80.5846 262.015 81.2033 263.359C81.8219 264.681 82.0779 266.356 81.9713 268.383H67.9233C68.0299 269.279 68.3179 270.089 68.7873 270.815C69.2779 271.519 69.9393 272.073 70.7713 272.479C71.6033 272.863 72.5739 273.055 73.6833 273.055C74.9206 273.055 75.9553 272.809 76.7873 272.319C77.6406 271.828 78.1953 271.177 78.4513 270.367ZM73.5233 262.207C72.0726 262.207 70.8779 262.569 69.9393 263.295C69.0006 263.999 68.3926 264.905 68.1153 266.015H78.3873C78.3019 264.82 77.8219 263.892 76.9473 263.231C76.0726 262.548 74.9313 262.207 73.5233 262.207ZM85.4593 253.279H89.0113V275.615H85.4593V253.279ZM101.807 275.967C100.036 275.967 98.4468 275.647 97.0388 275.007C95.6308 274.367 94.5214 273.428 93.7108 272.191C92.9001 270.953 92.4948 269.449 92.4948 267.679C92.4948 265.929 92.9001 264.436 93.7108 263.199C94.5214 261.94 95.6308 260.98 97.0388 260.319C98.4468 259.657 100.036 259.327 101.807 259.327C103.577 259.327 105.156 259.657 106.543 260.319C107.929 260.98 109.017 261.94 109.807 263.199C110.617 264.436 111.023 265.929 111.023 267.679C111.023 269.449 110.617 270.953 109.807 272.191C109.017 273.428 107.929 274.367 106.543 275.007C105.156 275.647 103.577 275.967 101.807 275.967ZM101.807 273.055C102.831 273.055 103.769 272.852 104.623 272.447C105.476 272.041 106.148 271.433 106.639 270.623C107.151 269.812 107.407 268.831 107.407 267.679C107.407 266.527 107.151 265.545 106.639 264.735C106.148 263.924 105.476 263.305 104.623 262.879C103.791 262.431 102.852 262.207 101.807 262.207C100.761 262.207 99.8121 262.42 98.9588 262.847C98.1054 263.273 97.4121 263.892 96.8788 264.703C96.3668 265.513 96.1108 266.505 96.1108 267.679C96.1108 268.831 96.3668 269.812 96.8788 270.623C97.3908 271.433 98.0734 272.041 98.9268 272.447C99.8014 272.852 100.761 273.055 101.807 273.055ZM124.442 275.967C123.14 275.967 122.031 275.711 121.114 275.199C120.218 274.687 119.492 274.015 118.938 273.183C118.404 272.329 118.01 271.423 117.754 270.463C117.498 269.481 117.37 268.553 117.37 267.679C117.37 266.505 117.487 265.417 117.722 264.415C117.978 263.412 118.372 262.537 118.906 261.791C119.46 261.023 120.186 260.425 121.082 259.999C121.999 259.551 123.119 259.327 124.442 259.327C125.935 259.327 127.279 259.689 128.474 260.415C129.668 261.119 130.618 262.1 131.322 263.359C132.026 264.596 132.378 266.036 132.378 267.679C132.378 269.321 132.015 270.772 131.29 272.031C130.586 273.268 129.636 274.239 128.442 274.943C127.247 275.625 125.914 275.967 124.442 275.967ZM123.386 273.023C124.452 273.023 125.391 272.799 126.202 272.351C127.012 271.903 127.642 271.273 128.09 270.463C128.538 269.652 128.762 268.724 128.762 267.679C128.762 266.079 128.292 264.777 127.354 263.775C126.415 262.751 125.092 262.239 123.386 262.239C122.319 262.239 121.359 262.463 120.506 262.911C119.652 263.359 118.98 263.988 118.49 264.799C117.999 265.588 117.754 266.548 117.754 267.679C117.754 268.703 117.978 269.62 118.426 270.431C118.874 271.241 119.514 271.881 120.346 272.351C121.178 272.799 122.191 273.023 123.386 273.023ZM114.202 259.679H117.594L117.754 263.583V282.015H114.202V259.679ZM135.546 259.679H139.098V275.615H135.546V259.679ZM145.818 259.327C146.735 259.327 147.578 259.455 148.346 259.711C149.135 259.967 149.807 260.361 150.362 260.895C150.938 261.407 151.375 262.047 151.674 262.815C151.994 263.583 152.154 264.489 152.154 265.535V275.615H148.602V266.239C148.602 264.937 148.282 263.977 147.642 263.359C147.023 262.719 146.042 262.399 144.698 262.399C143.674 262.399 142.735 262.623 141.882 263.071C141.05 263.497 140.367 264.063 139.834 264.767C139.3 265.449 138.991 266.207 138.906 267.039L138.874 265.311C138.98 264.521 139.215 263.775 139.578 263.071C139.94 262.345 140.42 261.705 141.018 261.151C141.615 260.575 142.319 260.127 143.13 259.807C143.94 259.487 144.836 259.327 145.818 259.327ZM158.522 259.327C159.46 259.327 160.314 259.455 161.082 259.711C161.85 259.967 162.511 260.361 163.066 260.895C163.642 261.407 164.09 262.047 164.41 262.815C164.73 263.583 164.89 264.489 164.89 265.535V275.615H161.306V266.239C161.306 264.937 160.986 263.977 160.346 263.359C159.727 262.719 158.746 262.399 157.402 262.399C156.378 262.399 155.439 262.623 154.586 263.071C153.754 263.497 153.071 264.063 152.538 264.767C152.026 265.449 151.727 266.207 151.642 267.039L151.578 265.247C151.684 264.479 151.93 263.743 152.314 263.039C152.698 262.313 153.188 261.673 153.786 261.119C154.383 260.564 155.076 260.127 155.866 259.807C156.676 259.487 157.562 259.327 158.522 259.327ZM182.108 270.367H185.532C185.361 271.455 184.934 272.425 184.252 273.279C183.59 274.111 182.684 274.772 181.532 275.263C180.38 275.732 179.004 275.967 177.404 275.967C175.59 275.967 173.969 275.636 172.54 274.975C171.11 274.292 169.99 273.332 169.18 272.095C168.369 270.857 167.964 269.385 167.964 267.679C167.964 265.993 168.358 264.521 169.148 263.263C169.937 262.004 171.025 261.033 172.412 260.351C173.82 259.668 175.441 259.327 177.276 259.327C179.174 259.327 180.753 259.668 182.012 260.351C183.292 261.012 184.241 262.015 184.86 263.359C185.478 264.681 185.734 266.356 185.628 268.383H171.58C171.686 269.279 171.974 270.089 172.444 270.815C172.934 271.519 173.596 272.073 174.428 272.479C175.26 272.863 176.23 273.055 177.34 273.055C178.577 273.055 179.612 272.809 180.444 272.319C181.297 271.828 181.852 271.177 182.108 270.367ZM177.18 262.207C175.729 262.207 174.534 262.569 173.596 263.295C172.657 263.999 172.049 264.905 171.772 266.015H182.044C181.958 264.82 181.478 263.892 180.604 263.231C179.729 262.548 178.588 262.207 177.18 262.207ZM188.796 259.679H192.348V275.615H188.796V259.679ZM199.068 259.327C199.985 259.327 200.828 259.455 201.596 259.711C202.385 259.967 203.057 260.361 203.612 260.895C204.188 261.407 204.625 262.047 204.924 262.815C205.244 263.583 205.404 264.489 205.404 265.535V275.615H201.852V266.239C201.852 264.937 201.532 263.977 200.892 263.359C200.273 262.719 199.292 262.399 197.948 262.399C196.924 262.399 195.985 262.623 195.132 263.071C194.3 263.497 193.617 264.063 193.084 264.767C192.55 265.449 192.241 266.207 192.156 267.039L192.124 265.311C192.23 264.521 192.465 263.775 192.828 263.071C193.19 262.345 193.67 261.705 194.268 261.151C194.865 260.575 195.569 260.127 196.38 259.807C197.19 259.487 198.086 259.327 199.068 259.327ZM208.207 259.679H219.471V262.591H208.207V259.679ZM212.047 255.391H215.631V275.615H212.047V255.391Z" fill="white"/>
<path d="M96.995 120.144H95.363L106.371 101.296H109.987V122.032H106.371V106.512L107.203 106.736L98.179 122.032H94.211L85.187 106.8L86.051 106.544V122.032H82.403V101.296H86.051L96.995 120.144ZM121.557 122.384C120.107 122.384 118.773 122.032 117.557 121.328C116.363 120.624 115.403 119.653 114.677 118.416C113.973 117.157 113.621 115.717 113.621 114.096C113.621 112.432 113.984 110.981 114.709 109.744C115.435 108.485 116.416 107.504 117.653 106.8C118.891 106.096 120.277 105.744 121.813 105.744C123.52 105.744 124.875 106.117 125.877 106.864C126.88 107.61 127.595 108.613 128.021 109.872C128.448 111.13 128.661 112.538 128.661 114.096C128.661 114.97 128.533 115.898 128.277 116.88C128.021 117.84 127.616 118.736 127.061 119.568C126.528 120.4 125.803 121.082 124.885 121.616C123.989 122.128 122.88 122.384 121.557 122.384ZM122.645 119.44C123.84 119.44 124.853 119.216 125.685 118.768C126.539 118.298 127.179 117.658 127.605 116.848C128.053 116.037 128.277 115.12 128.277 114.096C128.277 112.965 128.053 112.005 127.605 111.216C127.157 110.405 126.517 109.786 125.685 109.36C124.853 108.912 123.84 108.688 122.645 108.688C120.939 108.688 119.616 109.189 118.677 110.192C117.739 111.194 117.269 112.496 117.269 114.096C117.269 115.141 117.493 116.069 117.941 116.88C118.411 117.69 119.051 118.32 119.861 118.768C120.672 119.216 121.6 119.44 122.645 119.44ZM128.277 106.096H131.861V122.032H128.533C128.533 122.032 128.512 121.829 128.469 121.424C128.427 121.018 128.384 120.528 128.341 119.952C128.299 119.354 128.277 118.789 128.277 118.256V106.096ZM135.766 106.096H139.318V122.032H135.766V106.096ZM145.078 109.136C143.926 109.136 142.934 109.381 142.102 109.872C141.291 110.362 140.641 110.96 140.15 111.664C139.659 112.368 139.318 113.05 139.126 113.712L139.094 111.92C139.115 111.685 139.19 111.333 139.318 110.864C139.446 110.373 139.638 109.84 139.894 109.264C140.171 108.688 140.534 108.133 140.982 107.6C141.451 107.045 142.017 106.597 142.678 106.256C143.361 105.914 144.161 105.744 145.078 105.744V109.136ZM148.086 99.6957H151.638V122.032H148.086V99.6957ZM164.054 106.096L155.126 114.288L155.222 112.048L164.726 122.032H160.182L151.734 113.104L159.126 106.096H164.054ZM179.484 116.784H182.908C182.738 117.872 182.311 118.842 181.628 119.696C180.967 120.528 180.06 121.189 178.908 121.68C177.756 122.149 176.38 122.384 174.78 122.384C172.967 122.384 171.346 122.053 169.916 121.392C168.487 120.709 167.367 119.749 166.556 118.512C165.746 117.274 165.34 115.802 165.34 114.096C165.34 112.41 165.735 110.938 166.524 109.68C167.314 108.421 168.402 107.45 169.788 106.768C171.196 106.085 172.818 105.744 174.652 105.744C176.551 105.744 178.13 106.085 179.388 106.768C180.668 107.429 181.618 108.432 182.236 109.776C182.855 111.098 183.111 112.773 183.004 114.8H168.956C169.063 115.696 169.351 116.506 169.82 117.232C170.311 117.936 170.972 118.49 171.804 118.896C172.636 119.28 173.607 119.472 174.716 119.472C175.954 119.472 176.988 119.226 177.82 118.736C178.674 118.245 179.228 117.594 179.484 116.784ZM174.556 108.624C173.106 108.624 171.911 108.986 170.972 109.712C170.034 110.416 169.426 111.322 169.148 112.432H179.42C179.335 111.237 178.855 110.309 177.98 109.648C177.106 108.965 175.964 108.624 174.556 108.624ZM184.802 106.096H196.066V109.008H184.802V106.096ZM188.642 101.808H192.226V122.032H188.642V101.808ZM203.02 99.3437V102.768H198.764V99.3437H203.02ZM199.084 106.096H202.668V122.032H199.084V106.096ZM206.922 106.096H210.474V122.032H206.922V106.096ZM217.194 105.744C218.112 105.744 218.954 105.872 219.722 106.128C220.512 106.384 221.184 106.778 221.738 107.312C222.314 107.824 222.752 108.464 223.05 109.232C223.37 110 223.53 110.906 223.53 111.952V122.032H219.978V112.656C219.978 111.354 219.658 110.394 219.018 109.776C218.4 109.136 217.418 108.816 216.074 108.816C215.05 108.816 214.112 109.04 213.258 109.488C212.426 109.914 211.744 110.48 211.21 111.184C210.677 111.866 210.368 112.624 210.282 113.456L210.25 111.728C210.357 110.938 210.592 110.192 210.954 109.488C211.317 108.762 211.797 108.122 212.394 107.568C212.992 106.992 213.696 106.544 214.506 106.224C215.317 105.904 216.213 105.744 217.194 105.744ZM234.557 119.568C233.064 119.568 231.709 119.301 230.493 118.768C229.299 118.234 228.349 117.456 227.645 116.432C226.963 115.408 226.621 114.181 226.621 112.752C226.621 111.322 226.952 110.085 227.613 109.04C228.296 107.994 229.235 107.184 230.429 106.608C231.645 106.032 233.021 105.744 234.557 105.744C235.005 105.744 235.432 105.776 235.837 105.84C236.264 105.904 236.669 105.989 237.053 106.096L244.509 106.128V109.104C243.485 109.125 242.451 108.986 241.405 108.688C240.381 108.368 239.475 108.037 238.685 107.696L238.589 107.504C239.315 107.866 239.965 108.314 240.541 108.848C241.139 109.36 241.608 109.946 241.949 110.608C242.291 111.269 242.461 112.016 242.461 112.848C242.461 114.256 242.12 115.461 241.437 116.464C240.776 117.466 239.848 118.234 238.653 118.768C237.48 119.301 236.115 119.568 234.557 119.568ZM239.677 128.528V127.792C239.677 126.746 239.368 126.01 238.749 125.584C238.131 125.157 237.267 124.944 236.157 124.944H231.837C230.984 124.944 230.248 124.869 229.629 124.72C229.032 124.592 228.552 124.389 228.189 124.112C227.827 123.856 227.56 123.546 227.389 123.184C227.219 122.842 227.133 122.458 227.133 122.032C227.133 121.178 227.389 120.538 227.901 120.112C228.435 119.685 229.128 119.408 229.981 119.28C230.856 119.152 231.773 119.13 232.733 119.216L234.557 119.568C233.299 119.61 232.339 119.728 231.677 119.92C231.037 120.09 230.717 120.442 230.717 120.976C230.717 121.296 230.845 121.552 231.101 121.744C231.357 121.936 231.72 122.032 232.189 122.032H236.733C238.035 122.032 239.176 122.181 240.157 122.48C241.139 122.8 241.896 123.322 242.429 124.048C242.984 124.794 243.261 125.808 243.261 127.088V128.528H239.677ZM234.557 116.784C235.411 116.784 236.168 116.624 236.829 116.304C237.491 115.984 238.013 115.525 238.397 114.928C238.781 114.33 238.973 113.605 238.973 112.752C238.973 111.898 238.781 111.162 238.397 110.544C238.013 109.925 237.491 109.456 236.829 109.136C236.168 108.816 235.411 108.656 234.557 108.656C233.725 108.656 232.968 108.816 232.285 109.136C231.624 109.456 231.101 109.925 230.717 110.544C230.333 111.141 230.141 111.877 230.141 112.752C230.141 113.605 230.333 114.33 230.717 114.928C231.101 115.525 231.624 115.984 232.285 116.304C232.947 116.624 233.704 116.784 234.557 116.784Z" fill="white"/>
<path d="M125.427 421.934C125.214 423.534 124.648 424.91 123.731 426.062C122.814 427.193 121.587 428.067 120.051 428.686C118.536 429.283 116.766 429.582 114.739 429.582C112.99 429.582 111.379 429.347 109.907 428.878C108.456 428.409 107.187 427.726 106.099 426.83C105.032 425.913 104.2 424.793 103.603 423.47C103.027 422.126 102.739 420.59 102.739 418.862C102.739 417.113 103.027 415.577 103.603 414.254C104.2 412.931 105.032 411.811 106.099 410.894C107.187 409.955 108.456 409.251 109.907 408.782C111.379 408.313 112.99 408.078 114.739 408.078C116.787 408.078 118.568 408.387 120.083 409.006C121.619 409.625 122.846 410.51 123.763 411.662C124.68 412.814 125.235 414.201 125.427 415.822H121.907C121.608 414.862 121.139 414.051 120.499 413.39C119.859 412.707 119.048 412.185 118.067 411.822C117.107 411.459 115.998 411.278 114.739 411.278C113.16 411.278 111.742 411.577 110.483 412.174C109.224 412.75 108.232 413.603 107.507 414.734C106.803 415.843 106.451 417.219 106.451 418.862C106.451 420.483 106.803 421.859 107.507 422.99C108.232 424.099 109.224 424.942 110.483 425.518C111.742 426.094 113.16 426.382 114.739 426.382C115.998 426.382 117.107 426.211 118.067 425.87C119.027 425.507 119.827 424.995 120.467 424.334C121.107 423.651 121.576 422.851 121.875 421.934H125.427ZM137.57 429.55C135.8 429.55 134.21 429.23 132.802 428.59C131.394 427.95 130.285 427.011 129.474 425.774C128.664 424.537 128.258 423.033 128.258 421.262C128.258 419.513 128.664 418.019 129.474 416.782C130.285 415.523 131.394 414.563 132.802 413.902C134.21 413.241 135.8 412.91 137.57 412.91C139.341 412.91 140.92 413.241 142.306 413.902C143.693 414.563 144.781 415.523 145.57 416.782C146.381 418.019 146.786 419.513 146.786 421.262C146.786 423.033 146.381 424.537 145.57 425.774C144.781 427.011 143.693 427.95 142.306 428.59C140.92 429.23 139.341 429.55 137.57 429.55ZM137.57 426.638C138.594 426.638 139.533 426.435 140.386 426.03C141.24 425.625 141.912 425.017 142.402 424.206C142.914 423.395 143.17 422.414 143.17 421.262C143.17 420.11 142.914 419.129 142.402 418.318C141.912 417.507 141.24 416.889 140.386 416.462C139.554 416.014 138.616 415.79 137.57 415.79C136.525 415.79 135.576 416.003 134.722 416.43C133.869 416.857 133.176 417.475 132.642 418.286C132.13 419.097 131.874 420.089 131.874 421.262C131.874 422.414 132.13 423.395 132.642 424.206C133.154 425.017 133.837 425.625 134.69 426.03C135.565 426.435 136.525 426.638 137.57 426.638ZM149.965 413.262H153.517V429.198H149.965V413.262ZM160.237 412.91C161.155 412.91 161.997 413.038 162.765 413.294C163.555 413.55 164.227 413.945 164.781 414.478C165.357 414.99 165.795 415.63 166.093 416.398C166.413 417.166 166.573 418.073 166.573 419.118V429.198H163.021V419.822C163.021 418.521 162.701 417.561 162.061 416.942C161.443 416.302 160.461 415.982 159.117 415.982C158.093 415.982 157.155 416.206 156.301 416.654C155.469 417.081 154.787 417.646 154.253 418.35C153.72 419.033 153.411 419.79 153.325 420.622L153.293 418.894C153.4 418.105 153.635 417.358 153.997 416.654C154.36 415.929 154.84 415.289 155.437 414.734C156.035 414.158 156.739 413.71 157.549 413.39C158.36 413.07 159.256 412.91 160.237 412.91ZM172.941 412.91C173.88 412.91 174.733 413.038 175.501 413.294C176.269 413.55 176.931 413.945 177.485 414.478C178.061 414.99 178.509 415.63 178.829 416.398C179.149 417.166 179.309 418.073 179.309 419.118V429.198H175.725V419.822C175.725 418.521 175.405 417.561 174.765 416.942C174.147 416.302 173.165 415.982 171.821 415.982C170.797 415.982 169.859 416.206 169.005 416.654C168.173 417.081 167.491 417.646 166.957 418.35C166.445 419.033 166.147 419.79 166.061 420.622L165.997 418.83C166.104 418.062 166.349 417.326 166.733 416.622C167.117 415.897 167.608 415.257 168.205 414.702C168.803 414.147 169.496 413.71 170.285 413.39C171.096 413.07 171.981 412.91 172.941 412.91ZM183.215 413.262H186.767V429.198H183.215V413.262ZM193.487 412.91C194.405 412.91 195.247 413.038 196.015 413.294C196.805 413.55 197.477 413.945 198.031 414.478C198.607 414.99 199.045 415.63 199.343 416.398C199.663 417.166 199.823 418.073 199.823 419.118V429.198H196.271V419.822C196.271 418.521 195.951 417.561 195.311 416.942C194.693 416.302 193.711 415.982 192.367 415.982C191.343 415.982 190.405 416.206 189.551 416.654C188.719 417.081 188.037 417.646 187.503 418.35C186.97 419.033 186.661 419.79 186.575 420.622L186.543 418.894C186.65 418.105 186.885 417.358 187.247 416.654C187.61 415.929 188.09 415.289 188.687 414.734C189.285 414.158 189.989 413.71 190.799 413.39C191.61 413.07 192.506 412.91 193.487 412.91ZM206.191 412.91C207.13 412.91 207.983 413.038 208.751 413.294C209.519 413.55 210.181 413.945 210.735 414.478C211.311 414.99 211.759 415.63 212.079 416.398C212.399 417.166 212.559 418.073 212.559 419.118V429.198H208.975V419.822C208.975 418.521 208.655 417.561 208.015 416.942C207.397 416.302 206.415 415.982 205.071 415.982C204.047 415.982 203.109 416.206 202.255 416.654C201.423 417.081 200.741 417.646 200.207 418.35C199.695 419.033 199.397 419.79 199.311 420.622L199.247 418.83C199.354 418.062 199.599 417.326 199.983 416.622C200.367 415.897 200.858 415.257 201.455 414.702C202.053 414.147 202.746 413.71 203.535 413.39C204.346 413.07 205.231 412.91 206.191 412.91ZM233.073 429.198H229.521V413.262H233.073V429.198ZM229.713 421.614L229.745 422.638C229.703 422.915 229.607 423.331 229.457 423.886C229.329 424.441 229.105 425.049 228.785 425.71C228.487 426.35 228.081 426.969 227.569 427.566C227.079 428.142 226.46 428.622 225.713 429.006C224.967 429.369 224.06 429.55 222.993 429.55C222.225 429.55 221.447 429.443 220.657 429.23C219.889 429.038 219.185 428.707 218.545 428.238C217.927 427.769 217.425 427.129 217.041 426.318C216.657 425.507 216.465 424.483 216.465 423.246V413.262H220.017V422.574C220.017 423.577 220.177 424.366 220.497 424.942C220.839 425.497 221.308 425.891 221.905 426.126C222.503 426.361 223.196 426.478 223.985 426.478C225.116 426.478 226.076 426.222 226.865 425.71C227.655 425.198 228.284 424.569 228.753 423.822C229.244 423.054 229.564 422.318 229.713 421.614ZM236.996 413.262H240.548V429.198H236.996V413.262ZM247.268 412.91C248.186 412.91 249.028 413.038 249.796 413.294C250.586 413.55 251.258 413.945 251.812 414.478C252.388 414.99 252.826 415.63 253.124 416.398C253.444 417.166 253.604 418.073 253.604 419.118V429.198H250.052V419.822C250.052 418.521 249.732 417.561 249.092 416.942C248.474 416.302 247.492 415.982 246.148 415.982C245.124 415.982 244.186 416.206 243.332 416.654C242.5 417.081 241.818 417.646 241.284 418.35C240.751 419.033 240.442 419.79 240.356 420.622L240.324 418.894C240.431 418.105 240.666 417.358 241.028 416.654C241.391 415.929 241.871 415.289 242.468 414.734C243.066 414.158 243.77 413.71 244.58 413.39C245.391 413.07 246.287 412.91 247.268 412.91ZM261.688 406.51V409.934H257.432V406.51H261.688ZM257.752 413.262H261.336V429.198H257.752V413.262ZM264.47 413.262H275.734V416.174H264.47V413.262ZM268.31 408.974H271.894V429.198H268.31V408.974ZM277.088 413.262H280.896L287.328 428.558L284.256 429.198L277.088 413.262ZM294.848 413.262L284.608 435.598H280.864L285.248 426.862L291.04 413.262H294.848Z" fill="white"/>
<defs>
<clipPath id="clip0_8_4111">
<rect width="474" height="464" fill="white" transform="translate(257.907 0.197998)"/>
</clipPath>
</defs>
</svg>
