<svg width="65" height="65" viewBox="0 0 65 65" fill="none" xmlns="http://www.w3.org/2000/svg">
<path d="M45.421 23.1479L29.1919 36.4134L28.4283 37.0388C28.2605 37.1718 28.151 37.3648 28.1228 37.577L27.9519 38.9879L27.4828 42.9516C27.4871 42.9998 27.4721 43.0478 27.4411 43.0849C27.4101 43.1221 27.3656 43.1454 27.3173 43.1497C27.2691 43.1541 27.2212 43.1391 27.184 43.1081C27.1468 43.077 27.1235 43.0325 27.1192 42.9843L25.7992 39.0206L24.4355 34.9661C24.3773 34.7844 24.3848 34.5881 24.4566 34.4113C24.5283 34.2345 24.6599 34.0885 24.8283 33.9988L41.7155 24.3188L44.8937 22.5006C45.3555 22.2316 45.8283 22.8134 45.421 23.1479Z" fill="#282830"/>
<path d="M55.8465 0.475098H9.301C6.98639 0.475098 4.76657 1.39458 3.12989 3.03126C1.49321 4.66794 0.57373 6.88775 0.57373 9.20237L0.57373 55.7478C0.57373 58.0624 1.49321 60.2823 3.12989 61.9189C4.76657 63.5556 6.98639 64.4751 9.301 64.4751H55.8465C58.1611 64.4751 60.3809 63.5556 62.0176 61.9189C63.6543 60.2823 64.5737 58.0624 64.5737 55.7478V9.20237C64.5737 6.88775 63.6543 4.66794 62.0176 3.03126C60.3809 1.39458 58.1611 0.475098 55.8465 0.475098ZM52.5337 18.9987L46.2865 46.6024C45.9919 47.8969 44.3483 48.4824 43.1955 47.6933L33.7628 41.2933L28.9592 45.8351C28.7633 46.0189 28.5256 46.1521 28.2665 46.2232C28.0075 46.2943 27.7351 46.3011 27.4728 46.2431C27.2105 46.1851 26.9664 46.0639 26.7616 45.8902C26.5567 45.7164 26.3974 45.4953 26.2974 45.246L24.5628 40.1551L22.8283 35.0642L13.5301 32.5187C13.2701 32.462 13.0362 32.3209 12.8646 32.1175C12.6931 31.914 12.5936 31.6596 12.5816 31.3938C12.5695 31.128 12.6457 30.8656 12.7981 30.6475C12.9506 30.4294 13.1708 30.2678 13.4246 30.1878L49.3446 17.246L50.0065 17.0096C51.3992 16.5224 52.8392 17.6496 52.5337 18.9987Z" fill="#282830"/>
</svg>
