<svg width="65" height="65" viewBox="0 0 65 65" fill="none" xmlns="http://www.w3.org/2000/svg">
<path d="M34.3805 31.3828L48.7828 51.9833H42.8721L31.1194 35.1733V35.1722L29.394 32.7045L15.665 13.0664H21.5758L32.655 28.9151L34.3805 31.3828Z" fill="#282830"/>
<path d="M57.3251 0.475098H7.15582C3.33668 0.475098 0.240479 3.5713 0.240479 7.39044V57.5598C0.240479 61.3789 3.33668 64.4751 7.15582 64.4751H57.3251C61.1443 64.4751 64.2405 61.3789 64.2405 57.5598V7.39044C64.2405 3.5713 61.1443 0.475098 57.3251 0.475098ZM41.0617 54.7483L29.1688 37.4397L14.2788 54.7483H10.4304L27.46 34.9537L10.4304 10.169H23.4192L34.681 26.5591L48.7808 10.169H52.6292L36.3903 29.0456H36.3893L54.0506 54.7483H41.0617Z" fill="#282830"/>
</svg>
